# xmcd
#
# Track frame offsets: 
#        150
#        18244
#        38565
#        60327
#        79128
#        99531
#        121531
#        137805
#        158619
#        176628
#        196520
#        213966
#        237680
#
# Disc length: 3425 seconds
#
# Revision: 2
# Processed by: cddbd v1.5.1PL0 Copyright (c) Steve Scherf et al.
# Submitted via: ExactAudioCopy v0.90b4
#
DISCID=9a0d5f0d
DTITLE=Foreign Legion - Playtight
DYEAR=2003
DGENRE=Hip-Hop
TTITLE0=Here We Go Again
TTITLE1=It's Working
TTITLE2=Feel The Music
TTITLE3=Nasty Lady
TTITLE4=Happy Drunk
TTITLE5=How Do It Feel
TTITLE6=Y'all Ain't Ready
TTITLE7=Champagne Beamin'
TTITLE8=Voodoo Star
TTITLE9=Playtight
TTITLE10=Bring It
TTITLE11=Party Crashers
TTITLE12=Roomate Joint
EXTD=
EXTT0=
EXTT1=
EXTT2=
EXTT3=
EXTT4=
EXTT5=
EXTT6=
EXTT7=
EXTT8=
EXTT9=
EXTT10=
EXTT11=
EXTT12=
PLAYORDER=
